<svg width="1351" height="582" viewBox="0 0 1351 582" fill="none" xmlns="http://www.w3.org/2000/svg">
<path d="M495 227.23V218C495 183.758 467.242 156 433 156H306C271.758 156 244 183.758 244 218V345C244 379.242 271.758 407 306 407H369.5" stroke="#188FFF" stroke-width="29"/>
<rect x="365" y="368" width="28" height="78" rx="14" fill="#188FFF"/>
<rect x="283" y="210" width="21" height="78" rx="10.5" transform="rotate(90 283 210)" fill="#188FFF"/>
<rect x="422" y="195" width="21" height="78" rx="10.5" transform="rotate(-180 422 195)" fill="#188FFF"/>
<rect x="283" y="321" width="21" height="78" rx="10.5" transform="rotate(90 283 321)" fill="#188FFF"/>
<rect x="401" y="210" width="21" height="101" rx="10.5" transform="rotate(90 401 210)" fill="#188FFF"/>
<rect x="367" y="240" width="21" height="67" rx="10.5" transform="rotate(90 367 240)" fill="#188FFF"/>
<rect x="355" y="270" width="21" height="55" rx="10.5" transform="rotate(90 355 270)" fill="#188FFF"/>
<path d="M1146.27 330.261C1146.27 333.734 1145.66 337.496 1144.43 341.547C1143.21 345.534 1141.22 349.263 1138.45 352.736C1135.75 356.144 1132.18 359.006 1127.75 361.321C1123.37 363.635 1118.04 364.793 1111.74 364.793H1066.5V340.968H1111.74C1115.14 340.968 1117.78 339.939 1119.64 337.881C1121.51 335.759 1122.44 333.155 1122.44 330.068C1122.44 326.789 1121.38 324.217 1119.26 322.352C1117.2 320.487 1114.69 319.554 1111.74 319.554H1066.5C1063.09 319.554 1060.45 320.616 1058.59 322.738C1056.72 324.795 1055.79 327.368 1055.79 330.454V365.468C1055.79 368.812 1056.82 371.416 1058.88 373.281C1061 375.146 1063.6 376.078 1066.69 376.078H1111.74V400H1066.5C1063.02 400 1059.26 399.389 1055.21 398.167C1051.22 396.945 1047.49 394.984 1044.02 392.283C1040.61 389.518 1037.75 385.949 1035.44 381.577C1033.12 377.14 1031.96 371.77 1031.96 365.468V330.261C1031.96 326.789 1032.58 323.059 1033.8 319.072C1035.02 315.021 1036.98 311.291 1039.68 307.883C1042.45 304.411 1046.02 301.517 1050.39 299.202C1054.83 296.887 1060.19 295.729 1066.5 295.729H1111.74C1115.21 295.729 1118.94 296.34 1122.92 297.562C1126.98 298.784 1130.71 300.777 1134.11 303.543C1137.59 306.243 1140.48 309.812 1142.79 314.249C1145.11 318.622 1146.27 323.959 1146.27 330.261Z" fill="#475563"/>
<path d="M1012.67 364.793C1012.67 369.101 1012.13 372.992 1011.03 376.464C1009.94 379.872 1008.49 382.895 1006.69 385.531C1004.89 388.104 1002.8 390.322 1000.42 392.187C998.044 393.987 995.536 395.466 992.9 396.624C990.328 397.781 987.723 398.65 985.087 399.228C982.45 399.743 979.942 400 977.563 400H932.325V374.921H977.563C980.907 374.921 983.415 374.053 985.087 372.317C986.759 370.58 987.595 368.073 987.595 364.793V331.033C987.595 327.56 986.727 324.988 984.99 323.316C983.318 321.644 980.843 320.808 977.563 320.808H932.518C929.109 320.808 926.537 321.677 924.801 323.413C923.065 325.085 922.197 327.56 922.197 330.84V432.603H897.118V330.84C897.118 326.532 897.664 322.673 898.757 319.265C899.851 315.857 901.297 312.867 903.098 310.295C904.963 307.658 907.085 305.44 909.464 303.639C911.844 301.774 914.319 300.263 916.891 299.105C919.528 297.948 922.164 297.112 924.801 296.598C927.502 296.019 930.01 295.729 932.325 295.729H977.563C981.872 295.729 985.73 296.276 989.138 297.369C992.546 298.462 995.536 299.909 998.109 301.71C1000.75 303.51 1002.96 305.6 1004.76 307.98C1006.63 310.359 1008.14 312.867 1009.3 315.503C1010.46 318.075 1011.29 320.68 1011.81 323.316C1012.38 325.953 1012.67 328.461 1012.67 330.84V364.793Z" fill="#475563"/>
<path d="M873.775 410.032C873.775 414.34 873.228 418.198 872.135 421.606C871.042 425.079 869.595 428.101 867.794 430.673C865.994 433.31 863.904 435.528 861.525 437.329C859.145 439.194 856.637 440.705 854.001 441.862C851.429 443.02 848.824 443.856 846.188 444.37C843.551 444.949 841.043 445.238 838.664 445.238H793.426V420.16H838.664C842.008 420.16 844.516 419.291 846.188 417.555C847.86 415.819 848.696 413.311 848.696 410.032V295.729H873.775V410.032ZM838.664 400H793.426C789.825 400 785.966 399.389 781.851 398.167C777.8 396.945 774.006 394.952 770.469 392.187C766.932 389.357 764.006 385.724 761.691 381.287C759.376 376.786 758.219 371.288 758.219 364.793V295.729H783.298V364.793C783.298 368.073 784.166 370.58 785.902 372.317C787.638 374.053 790.21 374.921 793.619 374.921H838.664V400Z" fill="#475563"/>
<path d="M737.384 364.793C737.384 369.101 736.837 372.992 735.744 376.464C734.651 379.872 733.204 382.895 731.404 385.531C729.603 388.104 727.513 390.322 725.134 392.187C722.755 393.987 720.247 395.466 717.61 396.624C715.038 397.781 712.434 398.65 709.797 399.228C707.161 399.743 704.653 400 702.274 400H657.035V374.921H702.274C705.617 374.921 708.125 374.053 709.797 372.317C711.469 370.58 712.305 368.073 712.305 364.793V331.033C712.305 327.56 711.437 324.988 709.701 323.316C708.029 321.644 705.553 320.808 702.274 320.808H657.228C653.82 320.808 651.248 321.677 649.511 323.413C647.775 325.085 646.907 327.56 646.907 330.84V432.603H621.828V330.84C621.828 326.532 622.375 322.673 623.468 319.265C624.561 315.857 626.008 312.867 627.808 310.295C629.673 307.658 631.795 305.44 634.175 303.639C636.554 301.774 639.03 300.263 641.602 299.105C644.238 297.948 646.875 297.112 649.511 296.598C652.212 296.019 654.72 295.729 657.035 295.729H702.274C706.582 295.729 710.44 296.276 713.848 297.369C717.257 298.462 720.247 299.909 722.819 301.71C725.456 303.51 727.674 305.6 729.475 307.98C731.339 310.359 732.851 312.867 734.008 315.503C735.166 318.075 736.002 320.68 736.516 323.316C737.095 325.953 737.384 328.461 737.384 330.84V364.793Z" fill="#475563"/>
<path d="M598.293 274.316H573.214V251.648H598.293V274.316ZM598.293 400H573.214V295.729H598.293V400Z" fill="#475563"/>
<path d="M551.414 365.468C551.414 368.941 550.803 372.702 549.582 376.754C548.36 380.741 546.366 384.47 543.601 387.943C540.9 391.351 537.332 394.212 532.894 396.527C528.522 398.842 523.184 400 516.883 400H471.644C468.172 400 464.41 399.389 460.359 398.167C456.372 396.945 452.642 394.984 449.169 392.283C445.761 389.518 442.9 385.949 440.585 381.577C438.27 377.14 437.112 371.77 437.112 365.468C437.112 361.996 437.723 358.234 438.945 354.183C440.167 350.131 442.128 346.402 444.829 342.994C447.594 339.521 451.163 336.627 455.536 334.312C459.973 331.997 465.342 330.84 471.644 330.84H516.883V354.761H471.644C468.236 354.761 465.599 355.822 463.735 357.945C461.87 360.002 460.937 362.574 460.937 365.661C460.937 368.941 461.998 371.513 464.12 373.378C466.307 375.178 468.879 376.078 471.837 376.078H516.883C520.291 376.078 522.927 375.05 524.792 372.992C526.657 370.934 527.589 368.362 527.589 365.275V330.261C527.589 326.982 526.56 324.377 524.503 322.448C522.509 320.519 519.969 319.554 516.883 319.554H461.805V295.729H516.883C520.355 295.729 524.085 296.34 528.072 297.562C532.123 298.784 535.853 300.777 539.261 303.543C542.733 306.243 545.627 309.812 547.942 314.249C550.257 318.622 551.414 323.959 551.414 330.261V365.468Z" fill="#475563"/>
<path d="M528.101 215H461.899C455.663 215 452.54 222.54 456.95 226.95L490.05 260.05C492.784 262.784 497.216 262.784 499.95 260.05L533.05 226.95C537.46 222.54 534.337 215 528.101 215Z" fill="#188FFF"/>
</svg>
